<?xml version="1.0" standalone="no"?><!DOCTYPE svg PUBLIC "-//W3C//DTD SVG 1.1//EN" "http://www.w3.org/Graphics/SVG/1.1/DTD/svg11.dtd"><svg t="1705468035568" class="icon" viewBox="0 0 1024 1024" version="1.1" xmlns="http://www.w3.org/2000/svg" p-id="21985" xmlns:xlink="http://www.w3.org/1999/xlink" fill="none" ><path d="M358.226502 0H111.088915C49.839513 0 0 49.829513 0 111.088915v247.117587C0 419.455904 49.829513 469.295417 111.088915 469.295417h247.137587c61.249402 0 111.088915-49.829513 111.088915-111.088915V111.068915C469.325417 49.829513 419.495903 0 358.226502 0z m37.029638 358.196502c0 20.409801-16.619838 37.029638-37.029638 37.029638H111.088915c-20.409801 0-37.029638-16.619838-37.029638-37.029638V111.068915c0-20.409801 16.619838-37.029638 37.029638-37.029638h247.137587c20.409801 0 37.029638 16.619838 37.029638 37.029638V358.196502z m-37.029638 196.498081H111.088915C49.839513 554.694583 0 604.524096 0 665.783498v247.127587C0 974.150487 49.829513 1023.99 111.088915 1023.99h247.137587c61.249402 0 111.088915-49.829513 111.088915-111.088915V665.783498c0.01-61.239402-49.819513-111.088915-111.088915-111.088915z m37.029638 358.206502c0 20.419801-16.619838 37.029638-37.029638 37.029638H111.088915c-20.409801 0-37.029638-16.609838-37.029638-37.029638V665.783498c0-20.409801 16.619838-37.019638 37.029638-37.019638h247.137587c20.409801 0 37.029638 16.609838 37.029638 37.019638v247.117587zM912.901085 0H665.763498c-61.249402 0-111.088915 49.829513-111.088915 111.088915v247.117587c0 61.249402 49.829513 111.088915 111.088915 111.088915h247.137587c61.249402 0 111.088915-49.829513 111.088915-111.088915V111.068915C1023.99 49.829513 974.160487 0 912.901085 0z m37.029638 358.196502c0 20.409801-16.619838 37.029638-37.029638 37.029638H665.763498c-20.409801 0-37.019638-16.619838-37.019638-37.029638V111.068915c0-20.409801 16.609838-37.029638 37.019638-37.029638h247.137587c20.409801 0 37.029638 16.619838 37.029638 37.029638V358.196502z m-37.029638 196.498081H665.763498c-61.249402 0-111.088915 49.829513-111.088915 111.088915v247.127587c0 61.249402 49.829513 111.088915 111.088915 111.088915h247.137587c61.249402 0 111.088915-49.829513 111.088915-111.088915V665.783498c0-61.239402-49.829513-111.088915-111.088915-111.088915z m37.029638 358.206502c0 20.419801-16.619838 37.029638-37.029638 37.029638H665.763498c-20.409801 0-37.019638-16.609838-37.019638-37.029638V665.783498c0-20.409801 16.609838-37.019638 37.019638-37.019638h247.137587c20.409801 0 37.029638 16.609838 37.029638 37.019638v247.117587z m0 0" p-id="21986" fill="#687485" fill-rule="evenodd" clip-rule="evenodd"></path></svg>